# xmcd CD database file
#
# Track frame offsets:
#	150
#	14137
#	38260
#	54650
#	70942
#	97532
#	117132
#	124070
#	184527
#
# Disc length: 2583 seconds
#
# Revision: 2
# Processed by: cddbd v1.5.2PL0 Copyright (c) Steve Scherf et al.
# Submitted via: CDex 1.51
#
DISCID=690a1509
DTITLE=Jaco Pastorius - Holiday for Pans
DYEAR=1900
DGENRE=Jazz
TTITLE0=Holiday for Pans
TTITLE1=Good Morning Anya
TTITLE2=Giant Steps
TTITLE3=She's Leaving Home
TTITLE4=City of Angels
TTITLE5=Elegant People
TTITLE6=Mysterious Mountain
TTITLE7=Birth of Island
TTITLE8=Extra Bass Track
EXTD=
EXTT0=
EXTT1=
EXTT2=
EXTT3=
EXTT4=
EXTT5=
EXTT6=
EXTT7=
EXTT8=
PLAYORDER=
